<svg width="271" height="72" fill="none" xmlns="http://www.w3.org/2000/svg"><path d="M1.32 69h3.95v-4.318h2.187c3.316 0 5.54-1.953 5.54-5.085 0-3.097-2.167-5.142-5.398-5.142H1.32V69Zm3.95-7.386v-4.006H6.66c1.385 0 2.216.739 2.216 1.989 0 1.242-.83 2.017-2.216 2.017H5.27ZM14.444 69h3.95v-4.801h1.363L22.315 69h4.29l-2.955-5.426c1.548-.746 2.471-2.16 2.471-4.176 0-3.097-2.166-4.944-5.397-4.944h-6.279V69Zm3.95-7.87v-3.522h1.391c1.385 0 2.216.54 2.216 1.79 0 1.243-.83 1.733-2.216 1.733h-1.392ZM31.582 69l.838-2.784h4.801L38.06 69h4.262L37.52 54.455h-5.398L27.322 69h4.261Zm1.733-5.739 1.449-4.8h.114l1.448 4.8h-3.01ZM56.62 59.91c-.313-3.608-2.955-5.653-6.62-5.653-3.92 0-7.017 2.613-7.017 7.471 0 4.837 3.012 7.472 7.017 7.472 4.262 0 6.42-2.955 6.62-5.426l-4.006-.029c-.199 1.243-1.08 2.017-2.529 2.017-1.924 0-3.04-1.363-3.04-4.034 0-2.528 1.08-4.034 3.069-4.034 1.52 0 2.386.895 2.5 2.216h4.006Zm1.393-2.273h4.375V69h3.892V57.636h4.376v-3.181H58.011v3.181Zm18.078-3.181h-3.95V69h3.95V54.455Zm15.45 5.454c-.312-3.608-2.954-5.653-6.619-5.653-3.92 0-7.017 2.613-7.017 7.471 0 4.837 3.011 7.472 7.017 7.472 4.261 0 6.42-2.955 6.62-5.426l-4.006-.029c-.2 1.243-1.08 2.017-2.529 2.017-1.924 0-3.04-1.363-3.04-4.034 0-2.528 1.08-4.034 3.069-4.034 1.52 0 2.386.895 2.5 2.216h4.005Zm10.4-5.454v8.977c0 1.356-.973 2.33-2.33 2.33-1.356 0-2.33-.974-2.33-2.33v-8.977h-3.948v9.318c0 3.324 2.514 5.398 6.278 5.398 3.736 0 6.279-2.074 6.279-5.398v-9.319h-3.949Zm5.826 0V69h3.863v-8.466h.114l3.239 8.352h2.329l3.239-8.295h.113V69h3.864V54.455h-4.915l-3.38 8.238h-.171l-3.381-8.238h-4.914ZM134.161 69l.838-2.784h4.801l.838 2.784h4.262l-4.801-14.545h-5.398L129.9 69h4.261Zm1.733-5.739 1.449-4.8h.114l1.449 4.8h-3.012ZM146.301 69h3.949v-4.801h1.363L154.17 69h4.29l-2.955-5.426c1.549-.746 2.472-2.16 2.472-4.176 0-3.097-2.166-4.944-5.398-4.944h-6.278V69Zm3.949-7.87v-3.522h1.392c1.385 0 2.216.54 2.216 1.79 0 1.243-.831 1.733-2.216 1.733h-1.392Zm9.012-3.494h4.375V69h3.892V57.636h4.375v-3.181h-12.642v3.181Zm27.559 1.62h3.991c-.305-2.92-2.954-5-6.392-5-3.92 0-7.102 2.699-7.102 7.5 0 4.602 2.884 7.443 7.131 7.443 3.807 0 6.534-2.33 6.534-6.307v-2.017h-6.449v2.813h2.642c-.035 1.264-.93 2.073-2.699 2.073-2.045 0-3.096-1.505-3.096-4.062 0-2.521 1.136-4.006 3.125-4.006 1.235 0 2.074.568 2.315 1.563ZM196.153 69l.838-2.784h4.802l.838 2.784h4.261l-4.801-14.545h-5.398L191.892 69h4.261Zm1.733-5.739 1.449-4.8h.114l1.449 4.8h-3.012ZM208.293 69h9.83v-3.182h-5.881V54.455h-3.949V69Zm11.426 0h9.829v-3.182h-5.88V54.455h-3.949V69Zm11.426 0h10.454v-3.182h-6.506v-2.5h5.995v-3.182h-5.995v-2.5h6.534v-3.181h-10.482V69Zm12.441 0h3.949v-4.801h1.363L251.455 69h4.29l-2.955-5.426c1.549-.746 2.472-2.16 2.472-4.176 0-3.097-2.166-4.944-5.398-4.944h-6.278V69Zm3.949-7.87v-3.522h1.392c1.385 0 2.216.54 2.216 1.79 0 1.243-.831 1.733-2.216 1.733h-1.392Zm8.13-6.675 5.341 9.971V69h3.92v-4.574l5.341-9.971h-4.403l-2.841 5.909h-.114l-2.84-5.91h-4.404Z" fill="#fff"/><rect x="119" width="32" height="32" rx="2" fill="#0278FE"/><path fill="#2A2C2F" d="M119 6h32v2h-32z"/><path fill="#2A2C2F" d="M130 6h2v26h-2z"/></svg>